# xmcd CD database file
#
# Track frame offsets:
#	150
#	20023
#	39783
#	64016
#	81141
#	96934
#	117093
#	137610
#	155448
#	170376
#	189695
#
# Disc length: 2744 seconds
#
# Revision: 3
# Processed by: cddbd v1.4PL0 Copyright (c) Steve Scherf et al.
# Submitted via: CDex 1.50beta8
#
DISCID=860ab60b
DTITLE=James Armstrong - Got It Goin' On
DYEAR=2000
DGENRE=Blues
TTITLE0=Got It Goin' On
TTITLE1=Pennies And Picks
TTITLE2=Another Dream
TTITLE3=2 Sides
TTITLE4=Mr B's
TTITLE5=Love Will Make You Do Wrong
TTITLE6=Beat Up By Love
TTITLE7=Shut My Eyes
TTITLE8=Likes Her Lovin'
TTITLE9=Lucky Guy
TTITLE10=I'll Learn Some Time
EXTD=YEAR: 2000
EXTT0=
EXTT1=
EXTT2=
EXTT3=
EXTT4=
EXTT5=
EXTT6=
EXTT7=
EXTT8=
EXTT9=
EXTT10=
PLAYORDER=
